<svg id="Layer_3" enable-background="new 0 0 64 64" height="512" viewBox="0 0 64 64" width="512" xmlns="http://www.w3.org/2000/svg"><g><path d="m25 53h14v2h-14z"/><path d="m52 45h-4c-.266 0-.52.105-.707.293l-1.019 1.019-3.274-6.548c-.854-1.705-2.566-2.764-4.472-2.764h-13.056c-1.905 0-3.618 1.059-4.472 2.764l-3.274 6.548-1.019-1.019c-.187-.188-.441-.293-.707-.293h-4c-.553 0-1 .447-1 1v4c0 .553.447 1 1 1h1v3c0 1.627.793 3.061 2 3.974v4.026c0 .553.447 1 1 1h6c.553 0 1-.447 1-1v-3h18v3c0 .553.447 1 1 1h6c.553 0 1-.447 1-1v-4.026c1.207-.914 2-2.348 2-3.974v-3h1c.553 0 1-.447 1-1v-4c0-.553-.447-1-1-1zm-3 8h-6v-1.279l4.923-1.641 1.077.538zm-3 4h-28c-1.302 0-2.402-.839-2.816-2h6.816c.553 0 1-.447 1-1v-3c0-.431-.275-.812-.684-.948l-3.155-1.052h25.678l-3.155 1.052c-.409.136-.684.517-.684.948v3c0 .553.447 1 1 1h6.816c-.414 1.161-1.514 2-2.816 2zm-29.923-6.92 4.923 1.641v1.279h-6v-2.382zm6.712-9.422c.512-1.022 1.54-1.658 2.683-1.658h13.057c1.143 0 2.171.636 2.683 1.658l3.17 6.342h-24.764zm-9.789 6.342h2.586l.726.726-2.548 1.274h-.764zm8 14h-4v-2.101c.323.066.658.101 1 .101h3zm26 0h-4v-2h3c.342 0 .677-.035 1-.101zm4-12h-.764l-2.548-1.274.726-.726h2.586z"/><path d="m24 21.919v.081h.089c2.115 1.861 4.879 3 7.911 3s5.796-1.139 7.911-3h.089v-.081c2.448-2.198 4-5.377 4-8.919 0-6.617-5.383-12-12-12s-12 5.383-12 12c0 3.542 1.552 6.721 4 8.919zm6 .879v-3.798h-2v3.159c-.716-.314-1.383-.713-2-1.178v-2.981c0-1.654 1.346-3 3-3h6c1.654 0 3 1.346 3 3v2.981c-.617.465-1.284.865-2 1.178v-3.159h-2v3.798c-.646.132-1.315.202-2 .202s-1.354-.07-2-.202zm0-11.798v-2c0-1.103.897-2 2-2s2 .897 2 2v2c0 1.103-.897 2-2 2s-2-.897-2-2zm2-8c5.514 0 10 4.486 10 10 0 2.241-.75 4.305-2 5.974v-.974c0-2.613-2.022-4.74-4.579-4.957.359-.6.579-1.294.579-2.043v-2c0-2.206-1.794-4-4-4s-4 1.794-4 4v2c0 .749.22 1.443.579 2.043-2.557.217-4.579 2.344-4.579 4.957v.974c-1.25-1.669-2-3.733-2-5.974 0-5.514 4.486-10 10-10z"/><path d="m25 29c0-6.617-5.383-12-12-12s-12 5.383-12 12 5.383 12 12 12 12-5.383 12-12zm-14 9.798v-4.798h-2v4.159c-.716-.314-1.383-.713-2-1.178v-3.981c0-1.654 1.346-3 3-3h6c1.654 0 3 1.346 3 3v3.981c-.617.465-1.284.865-2 1.178v-4.159h-2v4.798c-.646.132-1.315.202-2 .202s-1.354-.07-2-.202zm0-12.798v-2c0-1.103.897-2 2-2s2 .897 2 2v2c0 1.103-.897 2-2 2s-2-.897-2-2zm-8 3c0-5.514 4.486-10 10-10s10 4.486 10 10c0 2.241-.75 4.305-2 5.974v-1.974c0-2.613-2.022-4.74-4.579-4.957.359-.6.579-1.294.579-2.043v-2c0-2.206-1.794-4-4-4s-4 1.794-4 4v2c0 .749.22 1.443.579 2.043-2.557.217-4.579 2.344-4.579 4.957v1.974c-1.25-1.669-2-3.733-2-5.974z"/><path d="m51 17c-6.617 0-12 5.383-12 12s5.383 12 12 12 12-5.383 12-12-5.383-12-12-12zm-2 21.798v-4.798h-2v4.159c-.716-.314-1.383-.713-2-1.178v-3.981c0-1.654 1.346-3 3-3h6c1.654 0 3 1.346 3 3v3.981c-.617.465-1.284.865-2 1.178v-4.159h-2v4.798c-.646.132-1.315.202-2 .202s-1.354-.07-2-.202zm0-12.798v-2c0-1.103.897-2 2-2s2 .897 2 2v2c0 1.103-.897 2-2 2s-2-.897-2-2zm10 8.974v-1.974c0-2.613-2.022-4.74-4.579-4.957.359-.6.579-1.294.579-2.043v-2c0-2.206-1.794-4-4-4s-4 1.794-4 4v2c0 .749.22 1.443.579 2.043-2.557.217-4.579 2.344-4.579 4.957v1.974c-1.25-1.669-2-3.733-2-5.974 0-5.514 4.486-10 10-10s10 4.486 10 10c0 2.241-.75 4.305-2 5.974z"/></g></svg>