<?xml version="1.0"?>
<svg xmlns="http://www.w3.org/2000/svg" viewBox="0 0 64 64" width="512" height="512"><g id="Car-3" data-name="Car"><rect x="35" y="38" width="4" height="2"/><rect x="14" y="38" width="4" height="2"/><path d="M13,55a3,3,0,1,0-3-3A3,3,0,0,0,13,55Zm0-4a1,1,0,1,1-1,1A1,1,0,0,1,13,51Z"/><path d="M51,55a3,3,0,1,0-3-3A3,3,0,0,0,51,55Zm0-4a1,1,0,1,1-1,1A1,1,0,0,1,51,51Z"/><path d="M52.81,33.62l-2.83-.47A15.025,15.025,0,0,0,37,19.15V17h2V15H37V10a1,1,0,0,0-1-1H29V6a1,1,0,0,0-1-1H16a1,1,0,0,0-1,1v9H13v2h2v2.15A15.006,15.006,0,0,0,2,34V50a3.009,3.009,0,0,0,3,3H6.08a6.991,6.991,0,0,0,13.84,0H44.08a6.991,6.991,0,0,0,13.84,0H59a3.009,3.009,0,0,0,3-3V44.47A10.971,10.971,0,0,0,52.81,33.62ZM29,11h2v2h2V11h2v4H29ZM23,7h4V9H23ZM17,7h4V9H17Zm0,4h4v1h2V11h4v4H17Zm0,6H35v2H17Zm.9,36a5.038,5.038,0,0,1-.73,1.75l-.63-.63-1.42,1.42.63.63A5.038,5.038,0,0,1,14,56.9V56H12v.9a5.038,5.038,0,0,1-1.75-.73l.63-.63L9.46,54.12l-.63.63A5.038,5.038,0,0,1,8.1,53H9V51H8.1a5.038,5.038,0,0,1,.73-1.75l.63.63,1.42-1.42-.63-.63A5.038,5.038,0,0,1,12,47.1V48h2v-.9a5.038,5.038,0,0,1,1.75.73l-.63.63,1.42,1.42.63-.63A5.038,5.038,0,0,1,17.9,51H17v2ZM31,34H20V26H31ZM55.9,53a5.038,5.038,0,0,1-.73,1.75l-.63-.63-1.42,1.42.63.63A5.038,5.038,0,0,1,52,56.9V56H50v.9a5.038,5.038,0,0,1-1.75-.73l.63-.63-1.42-1.42-.63.63A5.038,5.038,0,0,1,46.1,53H47V51h-.9a5.038,5.038,0,0,1,.73-1.75l.63.63,1.42-1.42-.63-.63A5.038,5.038,0,0,1,50,47.1V48h2v-.9a5.038,5.038,0,0,1,1.75.73l-.63.63,1.42,1.42.63-.63A5.038,5.038,0,0,1,55.9,51H55v2ZM60,45H57v2h3v3a1,1,0,0,1-1,1H57.92a6.991,6.991,0,0,0-13.84,0H33V36H43a1,1,0,0,0,1-1V29a5,5,0,0,0-5-5H15a5,5,0,0,0-5,5v6a1,1,0,0,0,1,1H31V51H19.92A6.991,6.991,0,0,0,6.08,51H5a1,1,0,0,1-1-1V44H7V42H4V40H7V38H4V34A13.012,13.012,0,0,1,17,21H35A13.012,13.012,0,0,1,48,34a1,1,0,0,0,.84.99l3.64.6A8.962,8.962,0,0,1,59.3,41H57v2h2.88A10.169,10.169,0,0,1,60,44.47ZM33,34V26h6a3.009,3.009,0,0,1,3,3v5ZM18,26v8H12V29a3.009,3.009,0,0,1,3-3Z"/></g></svg>
