<?xml version="1.0" encoding="iso-8859-1"?>
<!-- Generator: Adobe Illustrator 16.0.0, SVG Export Plug-In . SVG Version: 6.00 Build 0)  -->
<!DOCTYPE svg PUBLIC "-//W3C//DTD SVG 1.1//EN" "http://www.w3.org/Graphics/SVG/1.1/DTD/svg11.dtd">
<svg version="1.1" id="Capa_1" xmlns="http://www.w3.org/2000/svg" xmlns:xlink="http://www.w3.org/1999/xlink" x="0px" y="0px"
	 width="30.896px" height="30.896px" viewBox="0 0 30.896 30.896" style="enable-background:new 0 0 30.896 30.896;"
	 xml:space="preserve">
<g>
	<g>
		<path d="M16.511,20.949c0.128,0,0.255-0.049,0.353-0.145c0.326-0.324,7.996-7.966,7.996-12.457C24.859,3.745,21.114,0,16.511,0
			c-4.603,0-8.348,3.745-8.348,8.348c0,4.491,7.67,12.132,7.996,12.457C16.257,20.9,16.384,20.949,16.511,20.949z M16.511,4.478
			c2.136,0,3.871,1.736,3.871,3.87c0,2.134-1.735,3.87-3.871,3.87c-2.134,0-3.869-1.736-3.869-3.87
			C12.642,6.214,14.377,4.478,16.511,4.478z"/>
		<path d="M1.831,26.757l-0.932,0.119c-0.273,0.035-0.468,0.286-0.433,0.56c0.035,0.274,0.289,0.467,0.56,0.434l0.484-0.062
			c0.149,0.086,0.338,0.092,0.495,0l0.147-0.082l6.335-0.812l3.954,3.841c0.019,0.018,0.042,0.025,0.062,0.04
			c0.019,0.013,0.03,0.031,0.051,0.042c0.007,0.004,0.016,0.002,0.022,0.006c0.068,0.032,0.14,0.055,0.214,0.055
			c0.081,0,0.162-0.021,0.237-0.061l7.171-3.861l5.462,3.83c0.115,0.082,0.257,0.108,0.396,0.079
			c0.137-0.03,0.255-0.116,0.324-0.237l3.987-6.924c0.069-0.121,0.085-0.265,0.044-0.396c-0.041-0.133-0.135-0.242-0.26-0.303
			L23.906,20c-0.001,0-0.001,0-0.002,0c-0.001-0.001-0.001-0.002-0.002-0.002c-0.063-0.029-0.13-0.044-0.196-0.047
			c-0.021,0-0.042,0.008-0.062,0.01c-0.046,0.005-0.092,0.01-0.135,0.025c-0.005,0.002-0.01,0.001-0.015,0.003l-6.976,2.938
			l-4.17-1.893c-0.014-0.007-0.029-0.004-0.044-0.01c-0.044-0.016-0.087-0.022-0.132-0.024c-0.028-0.002-0.055-0.006-0.082-0.003
			c-0.056,0.006-0.107,0.023-0.158,0.047c-0.012,0.006-0.025,0.004-0.037,0.012l-0.016,0.008c0,0-0.001,0.002-0.002,0.002
			L1.831,26.757z M15.818,23.707l-3.154,5.868L9.32,26.327l2.991-4.211L15.818,23.707z M10.432,23.034l-2.049,2.885l-3.932,0.503
			L10.432,23.034z M19.996,25.946l-5.977,3.22l2.849-5.301l5.812-2.447l-2.156,4.561h-0.002
			C20.365,25.868,20.162,25.855,19.996,25.946z M25.788,29.672l-4.435-3.109l2.571-5.442l5.31,2.569L25.788,29.672z"/>
	</g>
</g>
<g>
</g>
<g>
</g>
<g>
</g>
<g>
</g>
<g>
</g>
<g>
</g>
<g>
</g>
<g>
</g>
<g>
</g>
<g>
</g>
<g>
</g>
<g>
</g>
<g>
</g>
<g>
</g>
<g>
</g>
</svg>
