<svg width="150" height="150" viewBox="0 0 150 150" fill="none" xmlns="http://www.w3.org/2000/svg">
<circle cx="75" cy="75" r="75" fill="white"/>
<ellipse cx="74.7273" cy="74.7272" rx="68.1818" ry="68.1818" fill="#EB9831"/>
<g clip-path="url(#clip0)">
<path d="M65.2797 112.955C71.0301 110.2 77.3211 108.803 83.3103 106.67C89.6435 104.413 95.8596 101.844 102.062 99.2528C102.186 99.2012 102.293 99.1345 102.401 99.0708C102.603 98.9977 102.805 98.9039 103.009 98.762C107.199 95.8414 111.13 92.6007 114.958 89.2223C115.206 89.0034 115.374 88.7709 115.498 88.5333C117.643 86.4635 119.425 83.7235 119.374 80.6429C119.33 77.9519 118.165 75.6601 116.515 73.6659C118.005 68.6683 116.969 63.918 113.288 60.2188C114.794 52.8233 111.187 46.5289 104.022 44.4949C103.857 38.3077 100.615 33.3283 94.5449 31.1801C94.1494 31.0403 93.7899 31.0078 93.4664 31.0519C93.1813 31.044 92.8785 31.0825 92.5526 31.2013C84.9734 33.9621 78.5319 38.8582 75.5255 46.5372C75.2076 47.3479 75.3152 48.1106 75.6597 48.7265C75.717 48.9931 75.8073 49.2544 75.9483 49.5014C76.031 49.656 76.0638 49.7099 76.0578 49.6855C76.0951 49.7738 76.1321 49.8632 76.1697 49.9508C76.3521 50.3598 76.526 50.7699 76.7492 51.1585C76.3735 51.3758 75.9973 51.5915 75.6138 51.7939C72.677 41.4265 60.3503 24.1589 49.9984 37.1261C49.1988 38.1269 49.3308 39.2695 49.892 40.1109C49.9508 40.334 50.0325 40.5597 50.1664 40.7863C53.4018 46.2632 55.5377 52.0526 55.4055 58.5071C55.2436 66.4239 48.8466 69.7856 42.403 72.9269C40.3236 73.94 38.0338 74.7037 36.1445 76.0654C33.8115 77.7469 34.1094 78.5749 34.6969 80.9709C34.7586 81.2223 34.8514 81.4769 35.0123 81.7332C41.8724 92.6594 48.7436 103.579 55.7655 114.401C57.8978 117.686 62.8624 114.113 65.2797 112.955ZM50.4824 74.1357C63.7826 66.5853 61.7928 51.4168 54.8756 39.1286C62.0072 32.8554 69.5034 47.6516 71.0771 53.8394C70.7909 53.9477 70.5098 54.0664 70.22 54.169C67.2395 55.2277 68.6476 59.9378 71.6334 58.8768C77.9154 56.6464 83.4106 53.2003 88.2833 48.6654C90.6016 46.5079 86.9644 43.1984 84.6572 45.3471C83.4467 46.4735 82.1818 47.5102 80.8696 48.4716C80.8237 48.3888 80.8034 48.3564 80.8087 48.3746C80.771 48.2856 80.7344 48.197 80.6967 48.1084C80.6099 47.9151 80.525 47.7205 80.4361 47.5287C83.0704 41.9005 87.7878 38.2406 93.6234 36.042C97.9452 37.6691 99.3045 41.7478 99.0982 46.0755C99.0627 46.8257 99.3157 47.3815 99.7157 47.7611C99.9931 48.3189 100.514 48.7631 101.334 48.9133C107.21 49.9929 109.729 54.1024 108.352 59.8039C107.769 60.6932 107.732 61.8834 108.804 62.77C111.938 65.3642 113.231 68.7119 111.741 72.6406C111.694 72.7642 111.67 72.8849 111.642 73.0064C111.139 73.8942 111.105 75.0541 112.023 75.9825C113.286 77.2616 114.561 78.8922 114.463 80.7981C114.361 82.7547 112.93 84.2586 111.57 85.5119C111.367 85.6999 111.224 85.8979 111.106 86.0984C107.676 89.1148 104.147 91.9848 100.397 94.5998C100.354 94.6303 100.324 94.6661 100.283 94.6971C90.0041 98.9865 79.7161 103.193 68.9178 106.005C68.8105 106.033 68.7212 106.077 68.6244 106.114C63.3679 94.9809 57.8195 84.049 50.4824 74.1357ZM46.1717 76.5417C53.315 86.1477 58.7633 96.7197 63.8833 107.509C62.2247 108.403 60.5674 109.299 58.9093 110.197C52.4246 100.173 46.0576 90.075 39.7087 79.9646C41.7897 78.6889 43.9548 77.5692 46.1717 76.5417Z" fill="white"/>
</g>
<defs>
<clipPath id="clip0">
<rect width="81.8182" height="81.8182" fill="white" transform="translate(131.344 81.2924) rotate(147.877)"/>
</clipPath>
</defs>
</svg>