<svg enable-background="new 0 0 24 24" height="512" viewBox="0 0 24 24" width="512" xmlns="http://www.w3.org/2000/svg"><path d="m21.5 24h-19c-1.379 0-2.5-1.121-2.5-2.5v-19c0-1.379 1.121-2.5 2.5-2.5h19c1.379 0 2.5 1.121 2.5 2.5v19c0 1.379-1.121 2.5-2.5 2.5zm-19-23c-.827 0-1.5.673-1.5 1.5v19c0 .827.673 1.5 1.5 1.5h19c.827 0 1.5-.673 1.5-1.5v-19c0-.827-.673-1.5-1.5-1.5z"/><path d="m8.5 19c-.134 0-.268-.054-.366-.16-.188-.202-.177-.519.026-.706l6.606-6.134-6.606-6.134c-.203-.187-.215-.504-.026-.706.189-.204.506-.214.706-.026l7 6.5c.102.095.16.227.16.366s-.058.271-.16.366l-7 6.5c-.096.09-.218.134-.34.134z"/></svg>